<svg fill="none" xmlns="http://www.w3.org/2000/svg">
  <symbol viewBox="0 0 1024 1024" id="user">
    <path d="M843.282963 870.115556c-8.438519-140.515556-104.296296-257.422222-233.908148-297.14963C687.881481 536.272593 742.4 456.533333 742.4 364.088889c0-127.241481-103.158519-230.4-230.4-230.4S281.6 236.847407 281.6 364.088889c0 92.444444 54.518519 172.183704 133.12 208.877037-129.611852 39.727407-225.46963 156.634074-233.908148 297.14963-0.663704 10.903704 7.964444 20.195556 18.962963 20.195556l0 0c9.955556 0 18.299259-7.774815 18.962963-17.73037C227.745185 718.506667 355.65037 596.385185 512 596.385185s284.254815 122.121481 293.357037 276.195556c0.568889 9.955556 8.912593 17.73037 18.962963 17.73037C835.318519 890.311111 843.946667 881.019259 843.282963 870.115556zM319.525926 364.088889c0-106.287407 86.186667-192.474074 192.474074-192.474074s192.474074 86.186667 192.474074 192.474074c0 106.287407-86.186667 192.474074-192.474074 192.474074S319.525926 470.376296 319.525926 364.088889z"  />
  </symbol>
  <symbol viewBox="0 0 1024 1024" id="phone">
    <path d="M250.88 51.2 250.88 51.2c5.12 0 15.36 0 33.28 25.6 30.72 40.96 48.64 89.6 61.44 128l0 2.56c5.12 17.92 17.92 56.32 7.68 66.56-20.48 7.68-38.4 17.92-53.76 33.28-12.8 10.24-25.6 25.6-30.72 46.08-5.12 17.92-2.56 35.84 7.68 53.76 2.56 2.56 35.84 64 48.64 87.04 25.6 40.96 133.12 174.08 158.72 199.68 20.48 20.48 40.96 38.4 61.44 51.2 15.36 12.8 28.16 20.48 43.52 28.16 12.8 7.68 28.16 10.24 40.96 10.24 23.04 0 43.52-7.68 66.56-23.04 15.36-10.24 25.6-23.04 35.84-33.28 5.12 2.56 15.36 7.68 25.6 17.92 43.52 30.72 140.8 92.16 145.92 94.72 0 0 2.56 2.56 2.56 2.56 0 0 5.12 5.12 7.68 10.24 2.56 7.68-2.56 20.48-12.8 33.28C865.28 947.2 821.76 972.8 762.88 972.8c-7.68 0-17.92 0-25.6-2.56-66.56-7.68-284.16-192-391.68-307.2-69.12-76.8-248.32-366.08-240.64-460.8 0-2.56 0-5.12 0-7.68 0 0-2.56-58.88 58.88-99.84C192 76.8 227.84 51.2 250.88 51.2M747.52 714.24 747.52 714.24 747.52 714.24M250.88 0C217.6 0 181.76 20.48 135.68 53.76 48.64 115.2 53.76 199.68 53.76 199.68c-10.24 122.88 194.56 435.2 253.44 499.2 81.92 87.04 325.12 312.32 422.4 322.56 10.24 0 20.48 2.56 30.72 2.56 79.36 0 135.68-38.4 184.32-110.08 56.32-81.92-15.36-117.76-15.36-117.76s-99.84-61.44-143.36-92.16c-33.28-25.6-53.76-30.72-66.56-30.72-2.56 0-5.12 0-7.68 0-7.68 2.56-12.8 12.8-17.92 17.92-10.24 10.24-20.48 20.48-30.72 28.16-10.24 7.68-25.6 15.36-38.4 15.36-5.12 0-12.8-2.56-17.92-5.12-12.8-7.68-25.6-15.36-35.84-23.04-20.48-15.36-38.4-30.72-56.32-48.64-25.6-23.04-48.64-51.2-71.68-76.8-28.16-35.84-53.76-71.68-79.36-110.08-15.36-23.04-28.16-46.08-40.96-69.12-2.56-5.12-5.12-10.24-10.24-17.92-2.56-5.12-2.56-7.68-2.56-12.8 2.56-7.68 10.24-15.36 15.36-23.04 10.24-10.24 23.04-17.92 35.84-23.04 7.68-2.56 15.36-10.24 23.04-15.36 25.6-33.28 7.68-81.92-2.56-117.76-15.36-51.2-35.84-99.84-69.12-143.36C302.08 15.36 276.48 0 250.88 0L250.88 0z"  />
  </symbol>
  <symbol viewBox="0 0 17 17" id="list">
    <path d="M17 0H0V1H17V0Z" />
    <path d="M17 4H0V5H17V4Z" />
    <path d="M17 8H0V9H17V8Z" />
    <path d="M17 12H0V13H17V12Z" />
    <path d="M17 16H0V17H17V16Z" />
  </symbol>
  <symbol viewBox="0 0 17 17" id="list">
    <path d="M17 0H0V1H17V0Z" />
    <path d="M17 4H0V5H17V4Z" />
    <path d="M17 8H0V9H17V8Z" />
    <path d="M17 12H0V13H17V12Z" />
    <path d="M17 16H0V17H17V16Z" />
  </symbol>
  <symbol viewBox="0 0 17 17" id="kub">
    <path d="M4 1V7H1V1H4ZM5 0H0V8H5V0Z" />
    <path d="M10 1V7H7V1H10ZM11 0H6V8H11V0Z" />
    <path d="M16 1V7H13V1H16ZM17 0H12V8H17V0Z" />
    <path d="M4 10V16H1V10H4ZM5 9H0V17H5V9Z" />
    <path d="M10 10V16H7V10H10ZM11 9H6V17H11V9Z" />
    <path d="M16 10V16H13V10H16ZM17 9H12V17H17V9Z" />
  </symbol>
  <symbol viewBox="0 0 24 25" id="location">
    <path d="M12.336 22.6441C13.7141 21.2154 18.8569 15.5476 18.8569 10.5142C18.8569 8.76762 18.1345 7.09244 16.8485 5.85749C15.5624 4.62234 13.8183 3.92856 11.9997 3.92856C10.1812 3.92856 8.43684 4.62234 7.15093 5.85749C5.86499 7.09248 5.14258 8.76766 5.14258 10.5142C5.14258 15.5476 10.2851 21.2156 11.6635 22.6441H11.6633C11.7501 22.7344 11.872 22.7857 11.9998 22.7857C12.1276 22.7857 12.2495 22.7344 12.3363 22.6441H12.336ZM8.42531 10.5142C8.42531 9.60392 8.80181 8.73081 9.47201 8.08716C10.1424 7.44336 11.0514 7.08178 11.9993 7.08178C12.9472 7.08178 13.8562 7.44336 14.5266 8.08716C15.1968 8.73081 15.5733 9.60392 15.5733 10.5142C15.5733 11.4245 15.1968 12.2976 14.5266 12.9413C13.8562 13.5849 12.9472 13.9467 11.9993 13.9467C11.0514 13.9467 10.1424 13.5849 9.47201 12.9413C8.8018 12.2976 8.42531 11.4245 8.42531 10.5142Z"></path>
  </symbol>
  <symbol viewBox="0 0 800 800" id="dot">
    <g>
      <path style="fill:#030104;" d="M27.25,4.655C20.996-1.571,10.88-1.546,4.656,4.706C-1.571,10.96-1.548,21.076,4.705,27.3
        c6.256,6.226,16.374,6.203,22.597-0.051C33.526,20.995,33.505,10.878,27.25,4.655z"/>
      <path style="fill:#030104;" d="M13.288,23.896l-1.768,5.207c2.567,0.829,5.331,0.886,7.926,0.17l-0.665-5.416
        C17.01,24.487,15.067,24.5,13.288,23.896z M8.12,13.122l-5.645-0.859c-0.741,2.666-0.666,5.514,0.225,8.143l5.491-1.375
        C7.452,17.138,7.426,15.029,8.12,13.122z M28.763,11.333l-4.965,1.675c0.798,2.106,0.716,4.468-0.247,6.522l5.351,0.672
        C29.827,17.319,29.78,14.193,28.763,11.333z M11.394,2.883l1.018,5.528c2.027-0.954,4.356-1.05,6.442-0.288l1.583-5.137
        C17.523,1.94,14.328,1.906,11.394,2.883z"/>
      <circle style="fill:#030104;" cx="15.979" cy="15.977" r="6.117"/>
    </g>
  </symbol>
</svg>